<svg xmlns="http://www.w3.org/2000/svg" width="350" height="200" style="overflow: visible;" viewBox="0 0 350 200" data-svgdocument="" id="_gF5iky7zhpYWQa0iTxeUw" class="fl-svgdocument" x="0" y="0" xmlns:xlink="http://www.w3.org/1999/xlink"><defs transform="matrix(0.7944615483283997, 0, 0, 0.7944615483283997, -40.93521499633789, 187.25025939941406)" data-uid="o_ellmib4j5_6"></defs><g transform="matrix(0.8689051866531372, 0, 0, 0.8689051866531372, 21.737259428590846, -158.95434240130646)" data-uid="o_ellmib4j5_7"><path d="M59.888,107.756h-5.675l0.016-0.001c0,0-0.012,0-0.028,0.001h-0.104c-0.747-0.013-4.443-0.332-4.443-5.418v1.422   L49.26,80.215c0.64-3.294,3.768-4.484,3.768-4.484l10.234-8.91c1.204-0.963-0.241-3.131-0.241-3.131   c-1.444-1.685-3.612-0.602-3.612-0.602s-2.769,2.408-4.575,3.372c-4.042,2.156-5.636-3.097-5.87-3.97L48.33,24.621   c0-2.826-0.846-5.117-3.672-5.117c-2.826,0-3.672,2.291-3.672,5.117l-0.388,23.182l0.027-4.099c0,0-0.535,6.562-4.937,4.214   c-1.806-0.963-4.575-3.372-4.575-3.372s-2.167-1.083-3.612,0.602c0,0-1.445,2.167-0.241,3.13l10.234,8.909   c0,0,2.317,1.165,2.884,3.717l-0.379,22.667c-0.604,1.744-2.031,4.235-5.036,2.633c-1.806-0.964-4.575-3.372-4.575-3.372   s-2.167-1.083-3.612,0.602c0,0-1.445,2.167-0.241,3.131l10.234,8.909c0,0,2.444,1.232,2.953,4.646l-0.07,4.17   c-1.031,3.463-4.927,3.464-4.927,3.464h-5.539c-2.194,0-3.973,1.779-3.973,3.974s1.779,3.973,3.973,3.973h30.702   c2.194,0,3.973-1.779,3.973-3.973S62.083,107.756,59.888,107.756z" stroke="none" fill="#404a46" transform="matrix(1.183720350265503, 0, 0, 1.183720350265503, 22.630590438842773, 183.893798828125)" stroke-width="1" data-uid="o_ellmib4j5_8"></path><path d="M42.454,0.228c-4.298,0.588-10.409,3.112-15.141,7.777c-5.408,5.332-5.051,10.027-5.051,10.027   c0,4.165,2.705,5.725,4.574,6.105c0.886,0.181,3.619,0,3.619,0s4.374,0.116,4.374-4.596c0,0,0-6.17,8.865-6.17   c0,0,10.882-1.571,10.882,9.874v14.361c0,0-0.56,4.375,4.489,4.375c0,0,6.078,0.28,8.078,0c2.759-0.385,6.865-2.18,6.865-8.096   c0,0,0.836-16.24-7.842-24.297C56.159,0.3,48.257-0.565,42.454,0.228z" stroke="none" fill="#f87600" transform="matrix(1.183720350265503, 0, 0, 1.183720350265503, 23.170488357543945, 184.49000549316406)" stroke-width="1" data-uid="o_ellmib4j5_9"></path><path d="M25.037,39.196h4.093c0,0,3.059-0.667,3.059-4.037c0-1.793-4.983-7.103-15.687-5.828   c-4.33,0.516-13.082,4.125-14.526,14.021c-0.694,4.753,1.608,13.628,9.556,16.793c0,0,9.29,0.121,13.625,0   c0.71-0.02,1.662-0.917,1.686-2.288c0.013-0.736-0.48-2.183-1.806-2.528c-1.607-0.419-4.576-1.806-4.696-7.585v-1.926   C20.341,45.818,20.22,40.52,25.037,39.196z" stroke="none" fill="#df6d03" transform="matrix(1.183720350265503, 0, 0, 1.183720350265503, 23.050065994262695, 183.7379608154297)" stroke-width="1" data-uid="o_ellmib4j5_10"></path><path d="M23.922,94.392c-1.659-0.432-4.723-1.864-4.848-7.829v-1.988c0,0-0.124-5.467,4.848-6.834h4.224   c0,0,3.158-0.688,3.158-4.167c0-1.851-5.143-7.33-16.19-6.016C10.644,68.09,1.611,71.816,0.12,82.03   c-0.715,4.905,1.661,14.066,9.864,17.332c0,0,9.588,0.124,14.062,0c0.733-0.021,1.716-0.946,1.739-2.361   C25.799,96.242,25.29,94.748,23.922,94.392z" stroke="none" fill="#ffb407" transform="matrix(1.183720350265503, 0, 0, 1.183720350265503, 22.291282653808594, 184.0677490234375)" stroke-width="1" data-uid="o_ellmib4j5_11"></path><path d="M74.887,47.383c-11.047-1.315-16.19,4.165-16.19,6.015c0,3.479,3.158,4.167,3.158,4.167h4.224   c4.971,1.366,4.848,6.834,4.848,6.834v1.988c-0.125,5.966-3.189,7.397-4.848,7.829c-1.368,0.357-1.877,1.85-1.863,2.609   c0.023,1.415,1.006,2.34,1.739,2.361c4.474,0.124,14.062,0,14.062,0c8.203-3.267,10.579-12.427,9.864-17.333   C88.389,51.641,79.356,47.915,74.887,47.383z" stroke="none" fill="#ff9111" transform="matrix(1.183720350265503, 0, 0, 1.183720350265503, 22.649574279785156, 184.27528381347656)" stroke-width="1" data-uid="o_ellmib4j5_12"></path></g><path id="_VeJDs572SUOh1EKprQBTg" fill="#404a46" transform="matrix(0.6504735946655273, 0, 0, 0.6504735946655273, 110.67142538318069, 127.64958425732392)" text="Lorax" text-anchor="start" font-size="100" letter-spacing="0" side="left" offset="0" dx="0" dy="0" space="preserve" href="" font-family="Coiny" font-scale="contain" x="0" y="0" data-fl-textpath="" data-uid="o_ellmib4j5_13" d="M 45.3 0L 19.2 0Q 14.6-0.1  11.8-1.45Q 9-2.8  7.6-5.9Q 6.2-9  6.2-14.2L 6.2-14.2L 6.2-56.5Q 6.2-61.8  9.3-65.15Q 12.4-68.5  17.5-68.5L 17.5-68.5Q 23.5-68.5  26.35-66.3Q 29.2-64.1  29.2-57.4L 29.2-57.4L 29.2-17.3L 46.3-17.3Q 52.1-17.3  54.45-15.6Q 56.8-13.9  56.8-8.6L 56.8-8.6Q 56.8-3.2  54.1-1.6Q 51.4 0  45.3 0L 45.3 0ZM 96.20000000000002-23.7L 96.20000000000002-23.7Q 96.20000000000002-28.9  94.9-32.85Q 93.60000000000001-36.8  91.10000000000001-36.8L 91.10000000000001-36.8Q 89.4-36.8  88.10000000000001-34.8Q 86.80000000000001-32.8  86.20000000000002-29.9Q 85.60000000000001-27  85.60000000000001-23.7L 85.60000000000001-23.7Q 85.60000000000001-18.6  87.00000000000001-14.75Q 88.4-10.9  91.00000000000001-10.9Q 93.60000000000001-10.9  94.9-14.7Q 96.20000000000002-18.5  96.20000000000002-23.7ZM 91.00000000000001 0.7L 91.00000000000001 0.7Q 83.20000000000002 0.7  76.95000000000002-2.1Q 70.70000000000002-4.9  66.95000000000002-10.5Q 63.20000000000001-16.1  63.20000000000001-23.6L 63.20000000000001-23.6Q 63.20000000000001-35  71.00000000000001-41.7Q 78.80000000000001-48.4  91.00000000000001-48.4Q 103.20000000000002-48.4  110.9-41.7Q 118.60000000000001-35  118.60000000000001-23.6L 118.60000000000001-23.6Q 118.60000000000001-12.3  110.75000000000001-5.8Q 102.9 0.7  91.00000000000001 0.7ZM 148.5-30.8L 148.5-10.7Q 148.5-4.7  146-2.35Q 143.5 0  137.1 0L 137.1 0Q 131.20000000000002 0  129.1-2.75Q 127-5.5  127-11.8L 127-11.8L 127-36.4Q 127-39.8  128.20000000000002-42.35Q 129.4-44.9  131.70000000000002-46.3Q 134-47.7  137.1-47.7L 137.1-47.7Q 144.70000000000002-47.7  147.1-43.3L 147.1-43.3Q 152.9-47.7  158.3-47.7L 158.3-47.7Q 168.8-47.7  168.8-37.7L 168.8-37.7Q 168.8-33.7  166.5-31.2Q 164.2-28.7  160.5-28.7L 160.5-28.7Q 158.3-28.7  156.95-29.6Q 155.60000000000002-30.5  154.45-31.4Q 153.3-32.3  151.8-32.3L 151.8-32.3Q 149.6-32.3  148.5-30.8L 148.5-30.8ZM 191.10000000000002 0.6L 191.10000000000002 0.6Q 183.20000000000002 0.6  178.00000000000003-5.85Q 172.8-12.3  172.8-23.5L 172.8-23.5Q 172.8-34.9  177.95000000000002-41.65Q 183.10000000000002-48.4  191.10000000000002-48.4L 191.10000000000002-48.4Q 199.20000000000002-48.4  206.10000000000002-42.7L 206.10000000000002-42.7Q 208.8-47.7  214.8-47.7L 214.8-47.7Q 220.20000000000002-47.7  223.20000000000002-45.35Q 226.20000000000002-43  226.20000000000002-36.7L 226.20000000000002-36.7L 226.20000000000002-10.7Q 226.20000000000002-4.7  223.70000000000002-2.35Q 221.20000000000002 0  214.90000000000003 0L 214.90000000000003 0Q 208.3 0  206.20000000000002-3.7L 206.20000000000002-3.7Q 199.8 0.6  191.10000000000002 0.6ZM 204.70000000000002-14.4L 204.70000000000002-33.1Q 203.00000000000003-36  200.3-36L 200.3-36Q 197.70000000000002-36  196.10000000000002-32.2Q 194.50000000000003-28.4  194.50000000000003-23.5L 194.50000000000003-23.5Q 194.50000000000003-18.9  196.00000000000003-15.3Q 197.50000000000003-11.7  200.20000000000002-11.7L 200.20000000000002-11.7Q 203.00000000000003-11.7  204.70000000000002-14.4L 204.70000000000002-14.4ZM 261.20000000000005-9.9L 261.20000000000005-9.9Q 261-9.6  259.90000000000003-8.5Q 258.8-7.4  258.45000000000005-7Q 258.1-6.6  257.05-5.55Q 256-4.5  255.45000000000002-4.05Q 254.90000000000003-3.6  253.90000000000003-2.8Q 252.90000000000003-2  252.15000000000003-1.65Q 251.40000000000003-1.3  250.50000000000003-0.85Q 249.60000000000002-0.4  248.70000000000002-0.2Q 247.80000000000004 0  246.90000000000003 0L 246.90000000000003 0Q 242.50000000000003 0  238.50000000000003-3.6Q 234.50000000000003-7.2  234.50000000000003-11.3L 234.50000000000003-11.3Q 234.50000000000003-12.3  235.35000000000002-13.55Q 236.20000000000002-14.8  237.85000000000002-16.3Q 239.50000000000003-17.8  240.75000000000003-18.9Q 242.00000000000003-20  243.95000000000002-21.5Q 245.90000000000003-23  246.30000000000004-23.4L 246.30000000000004-23.4Q 245.50000000000003-24  244.00000000000003-25.25Q 242.50000000000003-26.5  241.50000000000003-27.4Q 240.50000000000003-28.3  239.20000000000002-29.65Q 237.90000000000003-31  237.15000000000003-32.25Q 236.40000000000003-33.5  235.80000000000004-35.1Q 235.20000000000002-36.7  235.20000000000002-38.4L 235.20000000000002-38.4Q 235.20000000000002-41.8  238.50000000000003-44.7Q 241.80000000000004-47.6  245.30000000000004-47.6L 245.30000000000004-47.6Q 247.20000000000002-47.6  249.00000000000003-46.8Q 250.80000000000004-46  252.45000000000002-44.55Q 254.10000000000002-43.1  255.45000000000002-41.65Q 256.8-40.2  258.45000000000005-38.25Q 260.1-36.3  261.20000000000005-35.3L 261.20000000000005-35.3Q 262.3-36.3  264.6-39Q 266.90000000000003-41.7  268.40000000000003-43.25Q 269.90000000000003-44.8  272.3-46.2Q 274.70000000000005-47.6  277-47.6L 277-47.6Q 278.40000000000003-47.6  279.90000000000003-47.05Q 281.40000000000003-46.5  282.65000000000003-45.55Q 283.90000000000003-44.6  284.95000000000005-43.45Q 286-42.3  286.55-40.95Q 287.1-39.6  287.1-38.3L 287.1-38.3Q 287.1-36.6  286.5-34.95Q 285.90000000000003-33.3  284.20000000000005-31.35Q 282.5-29.4  281.75-28.55Q 281-27.7  278.55-25.55Q 276.1-23.4  276.1-23.4L 276.1-23.4Q 276.40000000000003-23  278.40000000000003-21.5Q 280.40000000000003-20  281.65000000000003-18.9Q 282.90000000000003-17.8  284.5-16.3Q 286.1-14.8  286.95000000000005-13.55Q 287.8-12.3  287.8-11.3L 287.8-11.3Q 287.8-7.2  283.8-3.6Q 279.8 0  275.40000000000003 0L 275.40000000000003 0Q 274.40000000000003 0  273.35-0.3Q 272.3-0.6  271.45000000000005-0.95Q 270.6-1.3  269.5-2.1Q 268.40000000000003-2.9  267.75-3.4Q 267.1-3.9  265.95000000000005-5Q 264.8-6.1  264.35-6.55Q 263.90000000000003-7  262.70000000000005-8.3Q 261.5-9.6  261.20000000000005-9.9Z"></path><path id="_XmPMX6KpYhCNEEYcpp-KM" fill="#404a46" transform="matrix(0.6504735946655273, 0, 0, 0.6504735946655273, 12.628292601198268, 140.56190725537078)" text="Consultory" text-anchor="start" font-size="100" letter-spacing="0" side="left" offset="0" dx="0" dy="0" space="preserve" href="" font-family="Coiny" font-scale="contain" x="0" y="0" data-fl-textpath="" path="M-30.16063808458027 -17.480354256519036C208.2531211368423 96.074109471503 304.2578050125717 106.62351153948009 571 0" data-uid="o_ellmib4j5_14" d="M 33.38117647517298-42.69706927876046L 33.38117647517298-42.69706927876046Q 34.254558578585524-44.60683463121574  33.286931811119835-46.69877115962284Q 32.319305043654154-48.790707688029926  30.13671606941954-49.788858663358546L 30.13671606941954-49.788858663358546Q 25.771538120950307-51.785160614015794  20.685726189421842-48.11814316149083Q 15.599914257893376-44.45112570896586  12.730230203823586-38.176182408041335L 12.730230203823586-38.176182408041335Q 10.525980133306208-33.35629842327322  10.577245259690617-28.659504635292237Q 10.628510386075025-23.96271084731125  13.044535662645856-20.108774954879866Q 15.46056093921668-16.254839062448486  20.007621302205465-14.175357863847186L 20.007621302205465-14.175357863847186Q 23.372445970817168-12.636541776882222  27.06749656524392-12.54114206710009Q 30.76254715967067-12.445742357317956  33.40013093163641-13.163831380951484Q 36.03771470360216-13.881920404585014  38.686941414541494-14.264801370481175Q 41.336168125480825-14.647682336377336  42.88216864889701-13.940658728852894L 42.88216864889701-13.940658728852894Q 44.88287520861206-13.025687001468325  45.61011610525803-10.768781890869832Q 46.33735700190398-8.511876780271344  45.54715414643549-6.783993842335608L 45.54715414643549-6.783993842335608Q 44.673772043022936-4.874228489880316  42.372497481059014-2.8477449862569184Q 40.07122291909509-0.821261482633524  36.30573716796233 0.9204666988047059Q 32.54025141682958 2.6621948802429465  28.164242920218953 3.574910409634062Q 23.788234423608344 4.487625939025183  18.19506141569989 3.854052183567867Q 12.60188840779143 3.2204784281105505  7.236357179464665 0.7666906137610172L 7.236357179464665 0.7666906137610172Q 0.14294301320215685-2.4773000560570124 -4.9272911062303155-7.380128420801469Q-9.997525225662788-12.282956785545927 -12.644495738608665-18.276790875975443Q-15.291466251554546-24.27062496640496 -15.09290487267455-31.437254116766887Q-14.89434349379455-38.60388326712881 -11.483994328088418-46.06106226243042L-11.483994328088418-46.06106226243042Q-4.746475244620207-60.79353783851408  7.984246512948477-65.30781779564647Q 20.71496827051716-69.82209775277887  34.99273781030195-63.292526789170786L 34.99273781030195-63.292526789170786Q 42.26803439108401-59.96535687140871  47.32911663750406-54.68184984529701Q 52.3901988839241-49.39834281918529  54.03154522365787-43.369579911835004Q 55.67289156339166-37.340817004484734  53.30228299698618-32.15716819067752L 53.30228299698618-32.15716819067752Q 50.55736781483246-26.15504851153232  44.330909812898945-23.11963737790347Q 38.104451810965415-20.084226244274614  31.738567302781117-22.995499922316434L 31.738567302781117-22.995499922316434Q 28.100919012390086-24.659084881197472  26.105772107461835-27.990659408017365Q 24.11062520253359-31.322233934837264  25.81579978538666-35.050823432488066L 25.81579978538666-35.050823432488066Q 26.606002640855152-36.778706370423805  29.702462190209886-39.1012993737737Q 32.79892173956461-41.42389237712359  33.38117647517298-42.69706927876046ZM 83.05939243188 6.911623836677343L 83.05939243188 6.911623836677343Q 85.00715038467997 2.090188473914047  85.28133845044299-2.0591874917696025Q 85.55552651620597-6.208563457453252  83.2375287456467-7.144985550145549L 83.2375287456467-7.144985550145549Q 81.66129026166641-7.7817525731763055  79.70679374682175-6.414293844928885Q 77.75229723197708-5.046835116681454  76.10972813951977-2.582699005078851Q 74.4671590470625-0.11856289347624127  73.23108188470866 2.9411941636620043L 73.23108188470866 2.9411941636620043Q 71.32078081561637 7.669909615602929  71.17676954438343 11.764022554171905Q 71.0327582731505 15.858135492740884  73.44347595453215 16.832014469140866Q 75.85419363591379 17.805893445540853  78.48291405749691 14.769476322490751Q 81.11163447908002 11.733059199440639  83.05939243188 6.911623836677343ZM 69.09847744443988 27.587524124535914L 69.09847744443988 27.587524124535914Q 61.866324400294936 24.665887195335944  57.120122717712114 19.728674460578816Q 52.3739210351293 14.791461725821684  50.99450986692113 8.194513580730456Q 49.615098698712956 1.597565435639229  52.424364976789846-5.356427876038602L 52.424364976789846-5.356427876038602Q 56.69444971946672-15.926497709788908  66.43621397202702-19.217094805687807Q 76.17797822458732-22.5076919015867  87.48980734491658-17.93795208924829Q 98.80163646524585-13.368212276909887  103.4314583901531-4.271798206318749Q 108.0612803150603 4.824615864272388  103.79119557238343 15.394685698022695L 103.79119557238343 15.394685698022695Q 99.55856771341425 25.872035620950626  89.84535727285815 28.958464453350942Q 80.13214683230204 32.04489328575125  69.09847744443988 27.587524124535914ZM 134.65014192775413 41.9596404066579L 140.29274697099248 24.23589903171053Q 142.02023500889655 18.9090064028979  137.83481937197232 17.55169437311612L 137.83481937197232 17.55169437311612Q 135.8372346361676 16.903886358902092  134.0132330084481 18.15209229626845Q 132.18923138072861 19.400298233634807  131.10439319578498 22.09717162934477L 131.10439319578498 22.09717162934477L 126.35380109154876 36.7461263585795Q 124.47207305026038 42.54863440067897  121.38449196825842 43.96526528487698Q 118.29691088625647 45.381896169074984  112.30415667884226 43.43847212643289L 112.30415667884226 43.43847212643289Q 106.69189480205753 41.61844008649824  105.49506854353771 38.33932329886815Q 104.29824228501792 35.060206511238064  106.24166632766001 29.06745230382386L 106.24166632766001 29.06745230382386L 113.83027449416721 5.6671739701112465Q 115.403522528687 0.8158967545854594  118.97569532274726-1.2845987891793555Q 122.54786811680749-3.3850943329441634  126.92352991904643-1.966086301808673L 126.92352991904643-1.966086301808673Q 130.53820706002645-0.7938622760880492  132.67207920167257 1.0545396507413258Q 134.80595134331872 2.902941577570708  135.2096553995893 5.872288818118811L 135.2096553995893 5.872288818118811Q 144.20250388138385 3.427155655387999  154.85628913900908 6.882131731196154L 154.85628913900908 6.882131731196154Q 161.61002800768225 9.072339779253113  162.87891707348524 15.370944429386789Q 164.1478061392883 21.669549079520458  160.1992620526504 33.845303659663614L 160.1992620526504 33.845303659663614Q 158.2558380100083 39.838057867077815  156.75197273530028 43.502875630013286Q 155.24810746059228 47.16769339294877  153.7506394040289 49.678189244284184Q 152.25317134746552 52.1886850956196  150.48957618078634 53.08853624334674Q 148.72598101410722 53.98838739107388  146.78111598088472 53.98843787449619Q 144.83625094766225 53.98848835791853  142.07768155059856 53.093896338289625L 142.07768155059856 53.093896338289625Q 136.75078892178593 51.36640830038555  135.06808141089445 48.61304754799778Q 133.38537390000295 45.85968679561  134.65014192775413 41.9596404066579L 134.65014192775413 41.9596404066579ZM 194.71295123342625 16.693918749744977L 194.71295123342625 16.693918749744977Q 203.80328092213546 18.657564886545753  209.0611506802165 23.680990570982264Q 214.31902043829757 28.704416255418792  213.36886908178107 33.102962878987746L 213.36886908178107 33.102962878987746Q 213.09438091212076 34.373654125796556  211.78692140587762 35.21659519107604Q 210.47946189963454 36.05953625635553  208.8177887307307 35.70059018833819L 208.8177887307307 35.70059018833819Q 207.3516065228744 35.38387306949936  205.81388985663398 33.977484981393324Q 204.27617319039362 32.57109689328731  202.96561919708458 31.060319533574155Q 201.65506520377556 29.54954217386102  199.32482745605054 28.02311102930283Q 196.99458970832546 26.496679884744644  194.15997077313656 25.88436012165623L 194.15997077313656 25.88436012165623Q 190.34789703271014 25.06089561267526  189.841149642568 27.406787145245367L 189.841149642568 27.406787145245367Q 189.48220357455065 29.068460314149192  191.2259684391332 30.468204611171842Q 192.9697333037157 31.867948908194506  196.50067508339845 33.75605646564214Q 200.03161686308124 35.64416402308979  201.77538172766376 37.04390832011244L 201.77538172766376 37.04390832011244Q 208.49397300385692 41.4621128494955  210.523511559782 45.32779173554043Q 212.55305011570707 49.19347062158537  211.391754013298 54.569472050391866L 211.391754013298 54.569472050391866Q 210.8216631993881 57.20860002453324  208.79594741491653 59.4821381395739Q 206.77023163044493 61.75567625461456  203.34167706188478 63.419260809245124Q 199.91312249332466 65.08284536387569  194.57307036480708 65.41275939012347Q 189.23301823628952 65.74267341637125  182.7818165217217 64.34911809348037L 182.7818165217217 64.34911809348037Q 170.1726495341574 61.62535087146641  165.16269278140314 54.50704114685253L 165.16269278140314 54.50704114685253Q 162.7449026482552 51.01787349939673  163.3994513605221 47.98776360316033L 163.3994513605221 47.98776360316033Q 163.80062637771795 46.130599473209  165.25470410474668 45.319330119813394Q 166.70878183177544 44.50806076641779  168.9569278838218 44.993693681970676L 168.9569278838218 44.993693681970676Q 171.20507393586814 45.479326597523546  175.32403584222638 48.670980215003034Q 179.4429977485846 51.86263383248253  183.35281696953476 52.70721281605275L 183.35281696953476 52.70721281605275Q 188.72881839834128 53.868508918461806  189.29890921225117 51.22938094432043L 189.29890921225117 51.22938094432043Q 189.59451185650073 49.86094421698787  186.9393659553205 48.41778786944754Q 184.28422005414035 46.97463152190722  179.9435561645949 44.80930544992715Q 175.60289227504953 42.64397937794709  173.246079362991 40.29335544002034L 173.246079362991 40.29335544002034Q 169.34645323714165 37.50715442814176  168.23766985376975 34.35190492790278Q 167.1288864703978 31.196655427663806  167.99457992855727 27.189090726189868L 167.99457992855727 27.189090726189868Q 169.47259314980516 20.34690708952705  176.91226172385672 17.401345766405473Q 184.3519302979083 14.455784443283893  194.71295123342625 16.693918749744977ZM 241.46056352316583 33.15742944224525L 240.09493804712088 51.40667783934854Q 239.63853176168462 57.08837593961877  244.0244039794371 57.44068956346428L 244.0244039794371 57.44068956346428Q 245.5195876900345 57.560796480684346  246.7419629157319 56.70592876717468Q 247.96433814142932 55.85106105366502  248.69853279851768 54.204562281875965Q 249.43272745560608 52.55806351008692  249.60888426752882 50.365127401210685L 249.60888426752882 50.365127401210685L 250.68183939469472 37.00815291987366Q 250.95408174039352 33.61906984251949  252.35441046814557 31.173343068279905Q 253.7547391958976 28.72761629404033  256.1594540082191 27.516275437220155Q 258.5641688205405 26.304934580399987  261.65421515577515 26.55315554265478L 261.65421515577515 26.55315554265478Q 267.0368765139259 26.985540444647  269.83907643147603 29.568208759023097Q 272.6412763490261 32.150877073399194  272.1368272967019 38.43064865790839L 272.1368272967019 38.43064865790839L 270.05497406488746 64.34716630826381Q 269.56653926819257 70.42758006469336  266.8904024774594 72.52001689224264Q 264.21426568672626 74.61245371979193  257.93449410221706 74.10800466746767L 257.93449410221706 74.10800466746767Q 255.24316342314168 73.89181221647155  253.3933032593656 73.19144276077375Q 251.5434430955896 72.49107330507594  250.48521399009294 71.30252328076912Q 249.42698488459627 70.11397325646229  248.9730397010214 68.27171003685736L 248.9730397010214 68.27171003685736Q 244.6700117743923 70.63474847553123  240.04654277961873 71.36689221440182Q 235.42307378484517 72.0990359532724  229.84105459861476 71.65063679565084L 229.84105459861476 71.65063679565084Q 222.76385170178696 71.08213072080922  220.11820096026648 65.30173002934394Q 217.472550218746 59.52132933787867  218.48945545120918 46.862107254820444L 218.48945545120918 46.862107254820444Q 218.99390450353346 40.58233567031124  219.60922279433245 36.66903994918203Q 220.22454108513142 32.75574422805281  221.10065716910844 29.966941508713056Q 221.97677325308544 27.178138789373307  223.4345383820285 25.890730218313756Q 224.89230351097157 24.603321647254216  226.78440618759646 24.153380027586653Q 228.6765088642213 23.703438407919098  231.66687628541615 23.94365224235922L 231.66687628541615 23.94365224235922Q 237.24889547164653 24.392051399980783  239.52287918151424 26.68148322627661Q 241.79686289138198 28.97091505257245  241.46056352316583 33.15742944224525L 241.46056352316583 33.15742944224525ZM 299.1250149181264 16.22384600246123L 300.4671401198666 58.50254867819211Q 300.72414281807215 66.59847046716186  298.13655277035616 70.18237584327903Q 295.5489627226403 73.7662812193962  289.9517822265625 73.94396209716797L 289.9517822265625 73.94396209716797Q 284.3546017304846 74.12164297493972  281.6559652921304 71.05572363914709Q 278.95732885377623 67.98980430335449  278.703499028388 59.99383216610042L 278.703499028388 59.99383216610042L 277.16464739603384 17.821424887719914Q 277.0821527027827 15.222733943112342  277.5684183308718 13.206290108303385Q 278.054683958961 11.189846273494426  278.95978543081696 9.760408857710116Q 279.864886902673 8.330971441925797  281.23562617133626 7.387004357041786Q 282.60636543999954 6.44303727215776  284.2428432020388 5.9908862638087435Q 285.879320964078 5.538735255459715  287.77836434667586 5.478450671930011L 287.77836434667586 5.478450671930011Q 293.275595191038 5.303942666975612  296.09401381520087 7.415581002243282Q 298.9124324393638 9.527219337510955  299.1250149181264 16.22384600246123L 299.1250149181264 16.22384600246123ZM 312.59536664746315 51.36866016289739L 312.59536664746315 51.36866016289739L 311.20097747677363 39.65133628580566Q 308.7066767471297 39.84745836538318  307.12855999343014 39.279966064384496Q 305.55044323973055 38.71247376338581  304.7631951443969 37.59769107766023Q 303.9759470490633 36.48290839193464  303.7632436162462 34.69552000390371L 303.7632436162462 34.69552000390371Q 303.0896827456589 29.035456775139053  309.8822539462172 27.723596841554006L 309.8822539462172 27.723596841554006L 308.78328620999577 18.488756836727482Q 308.3342456296042 14.715381350884392  313.43529599853656 11.036823870890977Q 318.53634636746887 7.358266390897569  323.8985115315617 6.720156092446416L 323.8985115315617 6.720156092446416Q 327.1753902429517 6.330199798948506  328.3929040820536 8.098718968082807Q 329.6104179211555 9.867238137217107  330.059458501547 13.640613623060204L 330.059458501547 13.640613623060204L 331.517696454991 25.048222578101374L 334.1987790370374 24.729167428875805Q 339.6602435560208 24.079240273045933  341.86722476326975 25.276835342695875Q 344.0742059705188 26.474430412345846  344.52324655091036 30.247805898188922L 344.52324655091036 30.247805898188922Q 344.7123162689699 31.83659557643866  344.24650557079224 32.999789624507706Q 343.78069487261456 34.16298367257672  342.5110547258637 34.91830737653316Q 341.2414145791128 35.673631080489585  339.38426897963814 36.14639975791188Q 337.5271233801634 36.619168435334174  334.74674144322637 36.95004044193847L 334.74674144322637 36.95004044193847L 332.95935305519544 37.16274387475552L 334.25920736685515 48.08567291272237Q 334.44827708491476 49.67446259097211  334.7213031197273 50.6993805312554Q 334.9943291545398 51.724298471538695  335.363128363484 52.28464402874616Q 335.7319275724281 52.84498958595365  336.30170773908395 52.97859558015187Q 336.87148790573974 53.1122015743501  337.66588274486463 53.0176667153203L 337.66588274486463 53.0176667153203Q 338.85747500355194 52.8758644267756  339.5514265549576 51.937285051175635Q 340.2453781063633 50.99870567557566  340.5681482008944 49.90288659102002Q 340.89091829542554 48.80706750646438  341.535220169386 47.87439655955377Q 342.1795220433463 46.941725612643175  343.1725155922524 46.823557038855924L 343.1725155922524 46.823557038855924Q 345.45640075473636 46.55176931914525  346.827628122035 47.49635150570788Q 348.19885548933354 48.44093369227049  348.38792520739315 50.029723370520216L 348.38792520739315 50.029723370520216Q 348.7069803566187 52.71080595256663  348.0306597090078 55.913162956652094Q 347.35433906139684 59.11551996073755  345.71104082756773 62.23153840013967Q 344.0677425937386 65.3475568395418  340.76713578531775 67.65374301940807Q 337.46652897689705 69.95992919927434  333.0973573617103 70.47987092393825L 333.0973573617103 70.47987092393825Q 323.26672122754013 71.649739804432  318.60460480808894 67.16926321242934Q 313.9424883886378 62.688786620426676  312.59536664746315 51.36866016289739ZM 384.3652885539649 37.14165225820582L 384.3652885539649 37.14165225820582Q 383.247091336519 32.06330262639665  381.1281041191607 28.485259421980018Q 379.00911690180243 24.907216217563374  376.5676026557403 25.444811033643134L 376.5676026557403 25.444811033643134Q 374.9073729684181 25.810375508577366  374.0678614133296 28.043136209788514Q 373.22834985824113 30.275896910999663  373.2659964258387 33.23707619229084Q 373.30364299343637 36.19825547358201  374.01326815066164 39.42105427838398L 374.01326815066164 39.42105427838398Q 375.10996157546435 44.40174334035066  377.30510557002196 47.86062218228163Q 379.5002495645796 51.3195010242126  382.0394243804841 50.760402415489665Q 384.5785991963887 50.2013038067667  385.03104248389974 46.210652848390836Q 385.48348577141076 42.220001890014984  384.3652885539649 37.14165225820582ZM 384.5338643270942 62.08902851721777L 384.5338643270942 62.08902851721777Q 376.9163398793805 63.7663243433866  370.2104480702158 62.37581542799647Q 363.5045562610513 60.985306512606314  358.63807250393944 56.322706825546845Q 353.7715887468277 51.66010713848739  352.15880429858845 44.335564400301095L 352.15880429858845 44.335564400301095Q 349.7073719372647 33.202259438257926  355.88414227788473 24.981705432642656Q 362.06091261850474 16.761151427027386  373.97550213928776 14.137688724558188Q 385.89009166007077 11.514226022088977  394.85070964503586 16.40169216800973Q 403.81132763000085 21.289158313930514  406.2627599913246 32.42246327597368L 406.2627599913246 32.42246327597368Q 408.692688560005 43.45810766817435  402.42408034917736 51.49409243042625Q 396.1554721383498 59.53007719267811  384.5338643270942 62.08902851721777ZM 431.2506272754273 17.262499926858766L 436.9501603282599 36.53749209234795Q 438.65151347835916 42.29122109697158  436.92048971022155 45.25366210299053Q 435.1894659420839 48.21610310900948  429.0521550038187 50.03087980244872L 429.0521550038187 50.03087980244872Q 423.3943214826055 51.703877066713005  420.600729470525 49.66222487546193Q 417.80713745844463 47.62057268421084  416.02071665084037 41.579157229356L 416.02071665084037 41.579157229356L 409.0451687354333 17.988868310399127Q 408.08106861704374 14.728421874445758  408.50873932917625 11.942816417460833Q 408.93641004130876 9.157210960475936  410.745023758058 7.162488818525702Q 412.55363747480726 5.167766676575454  415.52639746052944 4.2887342156908375L 415.52639746052944 4.2887342156908375Q 422.81445419971936 2.1336868922317365  426.3636047783083 5.67254690224938L 426.3636047783083 5.67254690224938Q 430.6778838393717-0.19149574623727972  435.8562399435329-1.722713581326616L 435.8562399435329-1.722713581326616Q 445.92526570162426-4.700081594000366  448.76085428512306 4.889466747039009L 448.76085428512306 4.889466747039009Q 449.89508971852257 8.725286083454776  448.3983907459583 11.774858542919375Q 446.9016917733939 14.824431002383918  443.3535588872093 15.873598778278478L 443.3535588872093 15.873598778278478Q 441.2438582521806 16.497428266648228  439.6940662536254 16.017173374727022Q 438.1442742550702 15.536918482805802  436.7862732233358 14.99995181921463Q 435.4282721916014 14.462985155623457  433.98983994044545 14.88832344314828L 433.98983994044545 14.88832344314828Q 431.88013930541683 15.512152931518017  431.2506272754273 17.262499926858766L 431.2506272754273 17.262499926858766ZM 504.2770950316924-4.2843206762214265L 504.2770950316924-4.2843206762214265Q 509.8827871770591 11.87074712219325  511.16721049811633 18.622802863397112L 511.16721049811633 18.622802863397112Q 512.4111092026781 24.64797638893063  512.2638410617176 29.409364011741673Q 512.1165729207571 34.17075163455269  510.31884939598694 38.446344006199894Q 508.5211258712167 42.7219363778471  504.54366102997307 45.901523369371375Q 500.56619618872935 49.08111036089562  494.33090686302546 51.24471083805469L 494.33090686302546 51.24471083805469Q 489.3237805863238 52.98214758486424  484.51709162093755 53.009372390354Q 479.71040265555126 53.036597195843825  476.46924844544174 51.779648753667715Q 473.22809423533215 50.52270031149163  471.0897828658919 48.93599791742946Q 468.95147149645163 47.349295523367374  468.4269622898676 45.837710232287634Q 467.9024530832836 44.32612494120792  468.4518762874994 42.706515685038624Q 469.00129949171514 41.08690642886933  470.7018329441799 40.496833571462304L 470.7018329441799 40.496833571462304Q 471.92999599318216 40.07066984111279  473.8455470085927 40.25278054195138Q 475.7610980240031 40.43489124278997  477.60050156919783 40.85512284313083Q 479.4399051143926 41.27535444347163  481.78058949291926 41.3099469299585Q 484.12127387144585 41.34453941644534  486.10522956598805 40.65612108280382L 486.10522956598805 40.65612108280382Q 491.20682992338214 38.88590251058278  492.4473874528525 35.597511260126964Q 493.68794498232285 32.30912000967115  492.0488537117478 27.58541597504697L 492.0488537117478 27.58541597504697Q 490.6722671178561 28.804025571889838  489.3245909538339 29.800905181936287Q 487.97691478981164 30.797784791982707  486.6581490556589 31.57293441523268Q 485.33938332150615 32.348084038482625  484.0967650575691 32.88511276223039Q 482.85414679363214 33.42214148597813  481.6259837446298 33.848305216327645L 481.6259837446298 33.848305216327645Q 476.0520129837733 35.78243291560619  471.0023013561094 34.04162492003729Q 465.95258972844556 32.300816924468364  462.6149007031769 28.325287780995666Q 459.27721167790816 24.349758637522996  457.4414294548641 19.05921011874392L 457.4414294548641 19.05921011874392Q 455.60564723182006 13.768661599964872  454.46886716181024 10.034999714840751Q 453.3320870918004 6.30133782971663  452.8046118202121 3.2559692415383665Q 452.27713654862373 0.21060065336013167  452.30114521571784-1.7030146642792943Q 452.32515388281195-3.616629981918777  453.08185185888954-5.096463814820339Q 453.838549834967-6.57629764772193  455.1245337437083-7.445921351664339Q 456.4105176524495-8.315545055606833  458.39447334699173-9.003963389248355L 458.39447334699173-9.003963389248355Q 464.3463404306181-11.069218390172892  467.4602387346237-9.873962203277728Q 470.5741370386294-8.678706016382648  472.0821010075584-4.332898304528385L 472.0821010075584-4.332898304528385L 477.4544489795025 10.844646861549961Q 477.9789581860865 12.356232152629673  478.22482187667276 13.064787757823296Q 478.470685567259 13.77334336301692  478.97299676782427 14.763385512517004Q 479.4753079683895 15.75342766201706  479.8754022971782 16.143843501950727Q 480.27549662596687 16.534259341884393  480.88093002884636 16.906348571341283Q 481.4863634317258 17.278437800798173  482.2604826877424 17.22152227159691Q 483.03460194375907 17.16460674239562  484.07381683137635 16.804006662869114L 484.07381683137635 16.804006662869114Q 486.90803925215084 15.820551900524094  487.07569473805466 14.015865878511818Q 487.2433502239586 12.211179856499626  485.8009499058526 8.054320306030348L 485.8009499058526 8.054320306030348L 480.58476826988186-7.283262591563442Q 479.56853168212535-10.211959093030458  479.9376548465779-12.351175793008395Q 480.30677801103053-14.490392492986388  482.3408117742276-16.25467893519874Q 484.3748455374247-18.018965377411092  488.4372310072014-19.428583870105626L 488.4372310072014-19.428583870105626Q 490.893557105206-20.280911330804656  492.91997311401474-20.084345415031294Q 494.9463891228234-19.88777949925796  496.428158653496-18.972979489435943Q 497.9099281841685-18.058179479613898  499.298254001382-15.734916381026352Q 500.6865798185954-13.411653282438778  501.7606372660909-10.926416754564741Q 502.8346947135864-8.441180226690705  504.2770950316924-4.2843206762214265Z"></path></svg>